# xmcd
#
# Track frame offsets:
#	150
#	2475
#	4575
#	73425
#	120450
#	193575
#	304275
#
# Disc length: 4098 seconds
#
# Revision: 1
# Processed by: cddbd v1.5.1PL0 Copyright (c) Steve Scherf et al.
# Submitted via: CDex 1.50Beta5
#
DISCID=55100007
DTITLE=Herbert von Karajan and Berliner Philharmoniker - カラヤン普門館ライブ1979 Beethoven-Symphonie No.9
DYEAR=1979
DGENRE=Classical
TTITLE0=Messege of Herbert von Karajan
TTITLE1=Applause
TTITLE2=Symphonie No.9-1.Allegro ma non troppo,un poco maestoso
TTITLE3=Symphonie No.9-2.Molto vivace
TTITLE4=Symphonie No.9-3.Adagio molto e cantabile
TTITLE5=Symphonie No.9-4.Presto-presto"O Freude,nicht diese Tone!"-Allegro assai
TTITLE6=Applause
EXTD=
EXTT0=
EXTT1=
EXTT2=
EXTT3=
EXTT4=
EXTT5=
EXTT6=
PLAYORDER=
